Coordinates
version=1
nRows=9
nColumns=63
inDegrees=yes

Units are S.I. units (second, meters, Newtons, ...)
If the header above contains a line with 'inDegrees', this indicates whether rotational values are in degrees (yes) or radians (no).

endheader
time	pelvis_tilt	pelvis_list	pelvis_rotation	pelvis_tx	pelvis_ty	pelvis_tz	hip_flexion_r	hip_adduction_r	hip_rotation_r	knee_angle_r	knee_angle_r_beta	ankle_angle_r	subtalar_angle_r	mtp_angle_r	hip_flexion_l	hip_adduction_l	hip_rotation_l	knee_angle_l	knee_angle_l_beta	ankle_angle_l	subtalar_angle_l	mtp_angle_l	L5_S1_Flex_Ext	L5_S1_Lat_Bending	L5_S1_axial_rotation	L4_L5_Flex_Ext	L4_L5_Lat_Bending	L4_L5_axial_rotation	L3_L4_Flex_Ext	L3_L4_Lat_Bending	L3_L4_axial_rotation	L2_L3_Flex_Ext	L2_L3_Lat_Bending	L2_L3_axial_rotation	L1_L2_Flex_Ext	L1_L2_Lat_Bending	L1_L2_axial_rotation	L1_T12_Flex_Ext	L1_T12_Lat_Bending	L1_T12_axial_rotation	Abs_r3	Abs_r2	Abs_r1	Abs_t1	Abs_t2	neck_flexion	neck_bending	neck_rotation	arm_flex_r	arm_add_r	arm_rot_r	elbow_flex_r	pro_sup_r	wrist_flex_r	wrist_dev_r	arm_flex_l	arm_add_l	arm_rot_l	elbow_flex_l	pro_sup_l	wrist_flex_l	wrist_dev_l
3.340426	-7.496150	4.952114	102.132452	0.298098	0.694313	0.908761	-7.164648	-0.110929	0.965347	0.857277	0.014962	18.818217	-10.916529	0.000000	-2.206254	2.514340	1.415514	9.251883	0.161476	23.695262	4.854533	0.000000	0.206656	-0.338830	-1.451461	0.383781	-0.450644	-1.542177	0.339516	-0.823832	-1.542177	0.236187	-0.823832	-1.270028	0.191901	-0.690943	-1.179312	0.118083	-0.524848	-1.088595	1.476125	-3.832917	-8.072588	0.000000	0.000000	25.251618	-6.208391	-33.388146	42.858268	-24.481021	-33.465866	107.752286	87.096215	-11.889617	7.264499	-14.842052	-7.855724	-13.230014	119.372724	46.947740	-10.693028	-11.922782
3.361702	-7.426223	4.935982	102.018097	0.298025	0.694215	0.909825	-7.060000	-0.066704	1.294790	0.891036	0.015552	18.613013	-11.353827	0.000000	-2.096677	2.466537	1.529334	9.407114	0.164185	23.693099	4.623413	0.000000	0.211475	-0.329851	-1.392836	0.392730	-0.438702	-1.479889	0.347432	-0.802000	-1.479889	0.241695	-0.802000	-1.218732	0.196376	-0.672632	-1.131680	0.120837	-0.510939	-1.044627	1.510544	-3.731340	-7.746539	0.000000	0.000000	25.187852	-5.955716	-32.772712	45.806071	-25.458292	-34.279932	106.375004	88.798777	-13.010522	6.215745	-14.798340	-8.273910	-13.068820	119.265468	45.482708	-10.527865	-11.999386
3.382979	-7.369582	4.908411	102.012007	0.297888	0.694115	0.910874	-6.960501	-0.018482	1.430572	0.924664	0.016138	18.472549	-11.660118	0.000000	-1.959329	2.426663	1.738173	9.588551	0.167352	23.688758	4.403435	0.000000	0.220120	-0.325476	-1.327241	0.408785	-0.432883	-1.410193	0.361635	-0.791361	-1.410193	0.251575	-0.791361	-1.161335	0.204403	-0.663710	-1.078383	0.125777	-0.504162	-0.995430	1.572295	-3.681845	-7.381714	0.000000	0.000000	25.040847	-5.736922	-32.143733	48.579354	-26.486394	-34.772275	104.914417	89.979421	-14.107170	5.078419	-14.387402	-8.837744	-12.788327	119.222511	44.550537	-10.324642	-12.448797
3.404255	-7.327040	4.861951	102.091627	0.297746	0.694012	0.911893	-6.855757	0.029052	1.428152	0.957487	0.016711	18.397499	-11.870857	0.000000	-1.794932	2.399988	2.036345	9.771102	0.170538	23.667627	4.156710	0.000000	0.232684	-0.326519	-1.254248	0.432117	-0.434270	-1.332639	0.382277	-0.793897	-1.332639	0.265935	-0.793897	-1.097467	0.216070	-0.665837	-1.019077	0.132956	-0.505777	-0.940686	1.662038	-3.693643	-6.975753	0.000000	0.000000	24.797165	-5.521755	-31.583643	51.105298	-27.555067	-34.999456	103.534242	90.568631	-15.150427	4.094339	-13.639681	-9.501909	-12.387742	119.256015	44.054702	-10.173528	-13.136623
3.425532	-7.304545	4.802090	102.243311	0.297661	0.693923	0.912913	-6.746238	0.068883	1.283819	0.990946	0.017295	18.403295	-11.946934	0.000000	-1.604385	2.381740	2.303479	9.955170	0.173750	23.650008	4.015157	0.000000	0.247964	-0.332731	-1.182319	0.460494	-0.442533	-1.256214	0.407380	-0.809003	-1.256214	0.283398	-0.809003	-1.034529	0.230259	-0.678506	-0.960634	0.141687	-0.515401	-0.886739	1.771183	-3.763923	-6.575704	0.000000	0.000000	24.428669	-5.254568	-31.005732	53.370910	-28.574659	-34.977916	102.343684	90.623547	-16.056128	3.405812	-12.618259	-10.210979	-11.923893	119.353894	43.924734	-10.034153	-13.933572
3.446809	-7.301476	4.736491	102.444732	0.297668	0.693858	0.913973	-6.631752	0.099491	1.052010	1.024506	0.017881	18.477696	-11.921843	0.000000	-1.393191	2.369972	2.501169	10.133320	0.176860	23.646010	4.001862	0.000000	0.264478	-0.342107	-1.120849	0.491163	-0.455002	-1.190902	0.434512	-0.831799	-1.190902	0.302272	-0.831799	-0.980743	0.245595	-0.697625	-0.910690	0.151123	-0.529924	-0.840637	1.889143	-3.869984	-6.233827	0.000000	0.000000	23.910359	-4.923657	-30.310136	55.366355	-29.416583	-34.718982	101.440628	90.359511	-16.745077	3.095467	-11.409805	-10.916625	-11.437858	119.557582	43.864760	-9.945750	-14.713639
3.468085	-7.304710	4.674432	102.678554	0.297764	0.693836	0.915099	-6.514230	0.132239	0.782175	1.056171	0.018434	18.594431	-11.839660	0.000000	-1.168132	2.349570	2.599180	10.302274	0.179809	23.666165	4.140041	0.000000	0.281537	-0.350496	-1.082456	0.522842	-0.466160	-1.150110	0.462537	-0.852196	-1.150110	0.321769	-0.852196	-0.947149	0.261435	-0.714731	-0.879496	0.160870	-0.542918	-0.811842	2.010991	-3.964880	-6.020298	0.000000	0.000000	23.199741	-4.526453	-29.322679	57.072176	-29.970006	-34.214622	100.887338	90.075716	-17.146704	3.145305	-10.108554	-11.574424	-10.991873	119.882813	43.707487	-9.892614	-15.461272
3.489362	-7.315484	4.625128	102.902434	0.297997	0.693876	0.916289	-6.398435	0.161368	0.500066	1.086904	0.018970	18.741637	-11.679421	0.000000	-0.956638	2.322663	2.566217	10.433337	0.182096	23.692856	4.417198	0.000000	0.298497	-0.356133	-1.070193	0.554339	-0.473657	-1.137080	0.490401	-0.865901	-1.137080	0.341152	-0.865901	-0.936419	0.277184	-0.726226	-0.869532	0.170561	-0.551650	-0.802645	2.132134	-4.028646	-5.952094	0.000000	0.000000	22.250982	-4.088419	-27.967579	58.436540	-30.171898	-33.472541	100.740239	89.956285	-17.195047	3.516225	-8.781733	-12.164365	-10.642438	120.309632	43.538952	-9.842502	-16.148738
3.510638	-7.321746	4.609849	103.109138	0.298336	0.693991	0.917609	-6.300344	0.200080	0.166033	1.120108	0.019550	18.908437	-11.392394	0.000000	-0.765443	2.274454	2.415866	10.560645	0.184318	23.737133	4.806470	0.000000	0.311443	-0.355513	-1.089083	0.578381	-0.472832	-1.157151	0.511670	-0.864393	-1.157151	0.355949	-0.864393	-0.952948	0.289206	-0.724961	-0.884880	0.177959	-0.550689	-0.816812	2.224608	-4.021630	-6.057153	0.000000	0.000000	21.109561	-3.580483	-26.111488	59.432608	-30.027815	-32.464652	101.021361	89.869650	-16.793678	4.083590	-7.456239	-12.668691	-10.407749	120.807692	43.617124	-9.784490	-16.699983
